<mxfile host="app.diagrams.net" modified="2021-08-30T11:31:20.362Z" agent="5.0 (Windows NT 10.0; Win64; x64) AppleWebKit/537.36 (KHTML, like Gecko) Chrome/92.0.4515.159 Safari/537.36" etag="hkAVlqjwRt-Azf0KD2y9" version="15.0.2" type="github">
  <diagram id="ZSnqy52ahs0qYySkq6TO" name="Page-1">
    <mxGraphModel dx="1014" dy="904" grid="1" gridSize="10" guides="1" tooltips="1" connect="1" arrows="1" fold="1" page="1" pageScale="1" pageWidth="827" pageHeight="1169" math="0" shadow="0">
      <root>
        <mxCell id="0" />
        <mxCell id="1" parent="0" />
        <mxCell id="PwRJdsHxrc1n9MCNELwR-1" value="Iterator Pattern" style="text;html=1;strokeColor=#d6b656;fillColor=#fff2cc;align=center;verticalAlign=middle;whiteSpace=wrap;rounded=0;fontSize=18;fontStyle=1" vertex="1" parent="1">
          <mxGeometry x="280" y="50" width="280" height="40" as="geometry" />
        </mxCell>
        <mxCell id="PwRJdsHxrc1n9MCNELwR-2" value="&lt;p style=&quot;margin: 0px ; margin-top: 4px ; text-align: center&quot;&gt;&lt;b&gt;Client&lt;/b&gt;&lt;/p&gt;&lt;hr size=&quot;1&quot;&gt;&lt;div style=&quot;height: 2px&quot;&gt;&lt;/div&gt;" style="verticalAlign=top;align=left;overflow=fill;fontSize=12;fontFamily=Helvetica;html=1;" vertex="1" parent="1">
          <mxGeometry x="344" y="150" width="140" height="60" as="geometry" />
        </mxCell>
        <mxCell id="PwRJdsHxrc1n9MCNELwR-3" value="&lt;p style=&quot;margin: 0px ; margin-top: 4px ; text-align: center&quot;&gt;&lt;i&gt;&amp;lt;&amp;lt;Interface&amp;gt;&amp;gt;&lt;/i&gt;&lt;br&gt;&lt;b&gt;Aggregate&lt;/b&gt;&lt;/p&gt;&lt;hr size=&quot;1&quot;&gt;&lt;p style=&quot;margin: 0px ; margin-left: 4px&quot;&gt;&lt;/p&gt;&lt;p style=&quot;margin: 0px ; margin-left: 4px&quot;&gt;+createIterator ()&lt;/p&gt;" style="verticalAlign=top;align=left;overflow=fill;fontSize=12;fontFamily=Helvetica;html=1;" vertex="1" parent="1">
          <mxGeometry x="90" y="150" width="170" height="90" as="geometry" />
        </mxCell>
        <mxCell id="PwRJdsHxrc1n9MCNELwR-4" value="&lt;p style=&quot;margin: 0px ; margin-top: 4px ; text-align: center&quot;&gt;&lt;i&gt;&amp;lt;&amp;lt;Interface&amp;gt;&amp;gt;&lt;/i&gt;&lt;br&gt;&lt;b&gt;Iterator&lt;/b&gt;&lt;/p&gt;&lt;hr size=&quot;1&quot;&gt;&lt;p style=&quot;margin: 0px ; margin-left: 4px&quot;&gt;&lt;/p&gt;&lt;p style=&quot;margin: 0px ; margin-left: 4px&quot;&gt;+hasNext()&lt;/p&gt;&lt;p style=&quot;margin: 0px ; margin-left: 4px&quot;&gt;+next()&lt;br&gt;&lt;/p&gt;&lt;p style=&quot;margin: 0px ; margin-left: 4px&quot;&gt;+remove()&lt;br&gt;&lt;/p&gt;" style="verticalAlign=top;align=left;overflow=fill;fontSize=12;fontFamily=Helvetica;html=1;" vertex="1" parent="1">
          <mxGeometry x="560" y="150" width="170" height="90" as="geometry" />
        </mxCell>
        <mxCell id="PwRJdsHxrc1n9MCNELwR-5" value="" style="endArrow=open;endFill=1;endSize=12;html=1;entryX=0;entryY=0.25;entryDx=0;entryDy=0;" edge="1" parent="1" target="PwRJdsHxrc1n9MCNELwR-4">
          <mxGeometry width="160" relative="1" as="geometry">
            <mxPoint x="484" y="173" as="sourcePoint" />
            <mxPoint x="490" y="460" as="targetPoint" />
          </mxGeometry>
        </mxCell>
        <mxCell id="PwRJdsHxrc1n9MCNELwR-6" value="" style="endArrow=open;endFill=1;endSize=12;html=1;entryX=1;entryY=0.25;entryDx=0;entryDy=0;exitX=0.007;exitY=0.367;exitDx=0;exitDy=0;exitPerimeter=0;" edge="1" parent="1" source="PwRJdsHxrc1n9MCNELwR-2" target="PwRJdsHxrc1n9MCNELwR-3">
          <mxGeometry width="160" relative="1" as="geometry">
            <mxPoint x="320" y="210" as="sourcePoint" />
            <mxPoint x="570" y="182.5" as="targetPoint" />
          </mxGeometry>
        </mxCell>
        <mxCell id="PwRJdsHxrc1n9MCNELwR-7" value="" style="endArrow=block;dashed=1;endFill=0;endSize=12;html=1;exitX=0.5;exitY=0;exitDx=0;exitDy=0;entryX=0.5;entryY=1;entryDx=0;entryDy=0;" edge="1" parent="1" source="PwRJdsHxrc1n9MCNELwR-8" target="PwRJdsHxrc1n9MCNELwR-3">
          <mxGeometry width="160" relative="1" as="geometry">
            <mxPoint x="122.5" y="440" as="sourcePoint" />
            <mxPoint x="175" y="260" as="targetPoint" />
          </mxGeometry>
        </mxCell>
        <mxCell id="PwRJdsHxrc1n9MCNELwR-8" value="&lt;p style=&quot;margin: 0px ; margin-top: 4px ; text-align: center&quot;&gt;&lt;b&gt;ConcreteAggregate&lt;/b&gt;&lt;/p&gt;&lt;hr size=&quot;1&quot;&gt;&lt;p style=&quot;margin: 0px ; margin-left: 4px&quot;&gt;&lt;/p&gt;&lt;p style=&quot;margin: 0px ; margin-left: 4px&quot;&gt;+createIterator ()&lt;/p&gt;" style="verticalAlign=top;align=left;overflow=fill;fontSize=12;fontFamily=Helvetica;html=1;" vertex="1" parent="1">
          <mxGeometry x="95" y="320" width="160" height="120" as="geometry" />
        </mxCell>
        <mxCell id="PwRJdsHxrc1n9MCNELwR-9" value="" style="endArrow=block;dashed=1;endFill=0;endSize=12;html=1;exitX=0.5;exitY=0;exitDx=0;exitDy=0;entryX=0.5;entryY=1;entryDx=0;entryDy=0;" edge="1" parent="1" source="PwRJdsHxrc1n9MCNELwR-10" target="PwRJdsHxrc1n9MCNELwR-4">
          <mxGeometry width="160" relative="1" as="geometry">
            <mxPoint x="592.5" y="440" as="sourcePoint" />
            <mxPoint x="645" y="250" as="targetPoint" />
          </mxGeometry>
        </mxCell>
        <mxCell id="PwRJdsHxrc1n9MCNELwR-10" value="&lt;p style=&quot;margin: 0px ; margin-top: 4px ; text-align: center&quot;&gt;&lt;b&gt;ConcreteIterator&lt;/b&gt;&lt;/p&gt;&lt;hr size=&quot;1&quot;&gt;&lt;p style=&quot;margin: 0px ; margin-left: 4px&quot;&gt;&lt;/p&gt;&lt;p style=&quot;margin: 0px 0px 0px 4px&quot;&gt;+hasNext()&lt;/p&gt;&lt;p style=&quot;margin: 0px 0px 0px 4px&quot;&gt;+next()&lt;br&gt;&lt;/p&gt;&lt;p style=&quot;margin: 0px 0px 0px 4px&quot;&gt;+remove()&lt;/p&gt;" style="verticalAlign=top;align=left;overflow=fill;fontSize=12;fontFamily=Helvetica;html=1;" vertex="1" parent="1">
          <mxGeometry x="565" y="320" width="160" height="120" as="geometry" />
        </mxCell>
        <mxCell id="PwRJdsHxrc1n9MCNELwR-12" value="&amp;lt;&amp;lt;create&amp;gt;&amp;gt;" style="html=1;verticalAlign=bottom;endArrow=open;dashed=1;endSize=8;exitX=1;exitY=0.25;exitDx=0;exitDy=0;entryX=0;entryY=0.25;entryDx=0;entryDy=0;" edge="1" parent="1" source="PwRJdsHxrc1n9MCNELwR-8" target="PwRJdsHxrc1n9MCNELwR-10">
          <mxGeometry y="10" relative="1" as="geometry">
            <mxPoint x="430" y="470" as="sourcePoint" />
            <mxPoint x="350" y="470" as="targetPoint" />
            <mxPoint as="offset" />
          </mxGeometry>
        </mxCell>
      </root>
    </mxGraphModel>
  </diagram>
</mxfile>
